<svg xmlns="http://www.w3.org/2000/svg" viewBox="0 0 256 256" role="img" aria-label="أيقونة مصحف مفتوح">
  <defs>
    <radialGradient id="bg" cx="50%" cy="35%" r="70%">
      <stop offset="0%" stop-color="#174d3b"/>
      <stop offset="58%" stop-color="#0b2b24"/>
      <stop offset="100%" stop-color="#061511"/>
    </radialGradient>
    <linearGradient id="gold" x1="30" y1="54" x2="220" y2="204" gradientUnits="userSpaceOnUse">
      <stop stop-color="#fff1b8"/>
      <stop offset="45%" stop-color="#d7aa4f"/>
      <stop offset="100%" stop-color="#8f6c24"/>
    </linearGradient>
    <linearGradient id="page" x1="54" y1="82" x2="198" y2="190" gradientUnits="userSpaceOnUse">
      <stop stop-color="#fff9df"/>
      <stop offset="100%" stop-color="#d9bd75"/>
    </linearGradient>
    <filter id="glow" x="-40%" y="-40%" width="180%" height="180%">
      <feGaussianBlur stdDeviation="5" result="blur"/>
      <feColorMatrix in="blur" type="matrix" values="1 0 0 0 0.86  0 1 0 0 0.66  0 0 1 0 0.27  0 0 0 0.85 0" result="color"/>
      <feMerge><feMergeNode in="color"/><feMergeNode in="SourceGraphic"/></feMerge>
    </filter>
  </defs>
  <rect width="256" height="256" rx="56" fill="url(#bg)"/>
  <circle cx="128" cy="122" r="86" fill="none" stroke="#d6aa4d" stroke-opacity="0.22" stroke-width="2"/>
  <path d="M172 51c-15 2-28 13-32 28 11-9 26-12 42-7-10-4-15-11-10-21Z" fill="#f3d98c" opacity=".9"/>
  <g filter="url(#glow)">
    <path d="M128 174c-19-17-43-23-75-17V82c30-5 56 2 75 20v72Z" fill="url(#page)" stroke="url(#gold)" stroke-width="6" stroke-linejoin="round"/>
    <path d="M128 174c19-17 43-23 75-17V82c-30-5-56 2-75 20v72Z" fill="url(#page)" stroke="url(#gold)" stroke-width="6" stroke-linejoin="round"/>
    <path d="M128 100v76" stroke="#8d6b25" stroke-width="4" stroke-linecap="round" opacity=".7"/>
    <path d="M70 103c17-3 31 0 43 8M70 124c17-3 31 0 43 8M70 145c17-3 31 0 43 8" stroke="#9b7a34" stroke-width="4" stroke-linecap="round" opacity=".56"/>
    <path d="M186 103c-17-3-31 0-43 8M186 124c-17-3-31 0-43 8M186 145c-17-3-31 0-43 8" stroke="#9b7a34" stroke-width="4" stroke-linecap="round" opacity=".56"/>
  </g>
  <path d="M63 178c43-7 65 15 65 15s22-22 65-15" fill="none" stroke="#f1d98b" stroke-width="7" stroke-linecap="round" opacity=".85"/>
</svg>
